<svg
	xmlns="http://www.w3.org/2000/svg"
	width="256"
	height="256"
	viewBox="0 0 20 20"
	fill="none"
>
	<rect width="20" height="20" rx="4" fill="#080A09" />
	<path
		d="M13.12 14.756C11.424 14.597 9.815 14.934 8.467 15.721C7.524 16.257 6.697 17.046 5.992 17.944L5.517 18.638L5.388 18.862L5.879 19.108C5.923 19.096 5.935 19.14 5.991 19.173C6.103 19.237 6.202 19.258 6.358 19.31L6.67 19.416L6.875 19.125C6.907 19.069 6.972 18.957 7.048 18.889C7.664 18.015 8.427 17.338 9.294 16.869C10.401 16.242 11.69 15.943 13.098 16.085C14.261 16.198 16.55 16.104 18.854 14.305L18.931 14.237L19.027 14.07C19.016 14.025 19.06 14.014 19.092 13.958C19.241 13.634 19.391 13.311 19.485 12.955L20 11.352L18.802 12.524C17.039 14.225 15.203 14.954 13.12 14.756Z"
		fill="#FFFFFF"
	/>
	<path
		d="M5.809 11.615C6.916 10.987 8.206 10.688 9.613 10.831C11.165 10.981 14.978 10.762 18.052 6.016L18.697 4.898L18.55 4.701C18.459 4.536 18.312 4.34 18.165 4.143L17.779 3.585L17.457 4.144C17.436 4.244 17.36 4.311 17.295 4.423C15.888 6.927 13.435 9.758 9.668 9.446C7.972 9.286 6.362 9.624 5.015 10.41C3.711 11.185 2.678 12.265 1.816 13.631L1.804 13.587L1.332 14.469C1.344 14.513 1.3 14.525 1.267 14.581L1.171 14.749L1.262 14.913C1.365 15.122 1.512 15.319 1.615 15.527L2.068 16.162L2.355 15.47C2.376 15.37 2.452 15.303 2.473 15.203C3.174 14.117 4.133 12.584 5.809 11.615Z"
		fill="#FFFFFF"
	/>
	<path
		d="M1.323 11.967C2.053 10.638 3.022 9.669 4.161 8.986C5.268 8.358 6.558 8.059 7.965 8.201C12.32 8.593 15.119 5.29 16.275 3.61L16.694 2.884L16.867 2.648L16.62 2.431C16.453 2.334 16.317 2.181 16.138 2.041L15.779 1.759L15.554 2.15C15.521 2.206 15.457 2.318 15.425 2.374C14.046 4.633 11.666 7.209 8.075 6.849C6.38 6.69 4.77 7.027 3.422 7.814C2.568 8.326 1.805 9.003 1.077 9.813L0.352 10.81C0.288 10.922 0.256 10.978 0.191 11.09L0.127 11.202L0.162 11.334C0.201 11.654 0.283 11.963 0.31 12.239L0.561 13.353L1.097 12.359C1.162 12.247 1.215 12.091 1.323 11.967Z"
		fill="#FFFFFF"
	/>
	<path
		d="M15.2 17.412C15.056 17.403 14.956 17.383 14.812 17.374C13.116 17.214 11.507 17.551 10.159 18.338C9.874 18.509 9.589 18.68 9.316 18.895L8.389 19.664L8.16 19.867L9.124 19.939C9.412 19.957 9.7 19.974 9.988 19.991L10.132 20L10.252 19.92C10.372 19.841 10.481 19.717 10.613 19.682C10.701 19.658 10.777 19.59 10.854 19.523C11.84 18.974 12.986 18.667 14.326 18.733C14.47 18.742 14.57 18.762 14.714 18.771L14.957 18.8L15.078 18.721C15.363 18.55 15.691 18.367 15.921 18.164L17.036 17.392L15.676 17.426C15.532 17.417 15.344 17.42 15.2 17.412Z"
		fill="#FFFFFF"
	/>
	<path
		d="M19.498 6.478L19.014 7.317C18.95 7.429 18.885 7.54 18.821 7.652C17.475 9.856 15.062 12.487 11.472 12.127C9.776 11.968 8.166 12.305 6.819 13.092C5.559 13.855 4.514 14.891 3.696 16.245L3.288 17.015L3.171 17.283L3.418 17.5C3.598 17.641 3.721 17.75 3.856 17.903L4.227 18.228L4.429 17.749C4.461 17.693 4.526 17.581 4.558 17.525C5.309 16.096 6.266 15.083 7.493 14.376C8.6 13.748 9.889 13.45 11.297 13.592C12.505 13.693 13.685 13.518 14.796 13.079C16.763 12.315 18.483 10.625 19.639 8.945C19.703 8.833 19.78 8.765 19.844 8.653L19.941 8.486L19.906 8.353C19.835 8.089 19.796 7.768 19.726 7.504Z"
		fill="#FFFFFF"
	/>
	<path
		d="M1.67 6.913C1.899 6.71 2.184 6.539 2.425 6.38C3.532 5.752 4.821 5.454 6.229 5.596C7.149 5.68 8.021 5.588 8.946 5.34C10.797 4.843 12.47 3.686 13.846 1.946L14.539 1.005L14.059 0.803C13.892 0.706 13.68 0.621 13.48 0.58L13.169 0.474L12.996 0.71C12.919 0.778 12.899 0.878 12.823 0.945C10.96 3.335 8.754 4.446 6.327 4.199C4.588 4.052 2.966 4.345 1.51 5.255C1.389 5.335 1.269 5.414 1.105 5.506L1.028 5.573L0.932 5.741C0.943 5.785 0.899 5.797 0.867 5.853C0.762 6.165 0.6 6.444 0.495 6.756L0 8.259L1.177 7.187C1.397 7.128 1.55 6.993 1.67 6.913Z"
		fill="#FFFFFF"
	/>
	<path
		d="M4.481 2.947L4.625 2.956C5.257 3.023 6.197 3.007 7.298 2.711C8.444 2.404 9.475 1.844 10.458 1.108L11.647 0.08L10.639 0.019C10.351 0.002 10.063 -0.015 9.743 0.023L9.61 0.059L9.49 0.138C9.37 0.218 9.261 0.341 9.141 0.421C7.949 1.261 6.651 1.703 5.279 1.693C5.135 1.685 4.991 1.676 4.847 1.667L4.703 1.659L4.582 1.738C4.342 1.897 4.101 2.056 3.872 2.26L2.977 2.973L4.117 2.998C4.193 2.93 4.337 2.939 4.481 2.947Z"
		fill="#FFFFFF"
	/>
</svg>
