<?xml version="1.0" encoding="UTF-8"?>
<svg version="1.1" xmlns="http://www.w3.org/2000/svg" width="512" height="512" viewBox="0 0 512 512"><style>path{fill:#000}@media(prefers-color-scheme:dark){path{fill:#fff!important}}</style>
<path d="M0 0 C4.16125995 0.56767088 7.60228638 2.20092882 11.32324219 4.08398438 C12.1355127 4.48375488 12.9477832 4.88352539 13.78466797 5.29541016 C28.30372294 12.62056522 41.39219101 21.45076793 53.44824219 32.33398438 C54.90536477 33.58539553 56.36353589 34.83558794 57.82324219 36.08398438 C61.52837035 39.33976721 65.01021831 42.79926607 68.44824219 46.33398438 C70.15769361 43.76980724 71.22854355 41.62663036 72.36621094 38.79882812 C82.98881992 12.87297894 82.98881992 12.87297894 93.44824219 8.33398438 C107.53816039 4.13273087 121.45164597 10.95081398 134.12792969 16.49414062 C145.01221 21.20602178 152.12561687 21.19907933 163.06616211 16.90161133 C164.47437705 16.33835821 165.88134366 15.77197506 167.28710938 15.20263672 C170.88370908 13.75700841 174.50902071 12.38934381 178.13574219 11.02148438 C178.79453369 10.76737793 179.4533252 10.51327148 180.13208008 10.25146484 C188.89075147 6.92355432 197.55317403 5.81837231 206.46386719 9.18945312 C212.48987626 12.66508434 215.64031738 16.61759817 218.69824219 22.70898438 C219.03597656 23.34320312 219.37371094 23.97742188 219.72167969 24.63085938 C221.87298806 28.78102119 223.30100996 32.80358773 224.44824219 37.33398438 C225.5271875 37.17671875 226.60613281 37.01945312 227.71777344 36.85742188 C233.18459 36.18084163 238.63203995 36.03645171 244.13574219 35.95898438 C245.15474609 35.92160156 246.17375 35.88421875 247.22363281 35.84570312 C254.66720049 35.75807447 254.66720049 35.75807447 258.61621094 38.66992188 C260.44824219 41.33398438 260.44824219 41.33398438 261.07324219 44.33398438 C260.19143613 48.56665347 258.94102706 49.75384414 255.44824219 52.33398438 C251.51558698 53.09193333 247.63236855 53.12451148 243.63574219 53.14648438 C242.56130859 53.17162109 241.486875 53.19675781 240.37988281 53.22265625 C237.73563448 53.28141732 235.09303731 53.31777813 232.44824219 53.33398438 C232.44824219 57.30617201 233.0877524 60.09162583 234.16308594 63.89257812 C234.33828262 64.51874527 234.51347931 65.14491241 234.69398499 65.79005432 C235.25304632 67.78526845 235.81901762 69.77843473 236.38574219 71.77148438 C236.94774134 73.76126517 237.5082406 75.75145018 238.06678772 77.74220276 C238.57501509 79.55154334 239.08756454 81.35966823 239.6003418 83.16772461 C240.32712671 85.88171065 240.93815684 88.57239848 241.44824219 91.33398438 C248.77335277 89.50750407 255.66028901 87.23765468 262.57324219 84.20898438 C263.92567017 83.62020508 263.92567017 83.62020508 265.30541992 83.01953125 C278.73422762 77.08639469 291.01670451 70.61767103 302.44824219 61.33398438 C303.36089844 60.62886719 304.27355469 59.92375 305.21386719 59.19726562 C307.51761004 57.52900184 307.51761004 57.52900184 308.44824219 55.33398438 C307.23007812 55.285 306.01191406 55.23601563 304.75683594 55.18554688 C303.13311782 55.11046164 301.50942093 55.03491635 299.88574219 54.95898438 C299.08587891 54.92804687 298.28601563 54.89710937 297.46191406 54.86523438 C285.76949881 54.29254465 285.76949881 54.29254465 281.44824219 50.64648438 C279.9692454 47.2263043 280.54321723 44.88943958 281.44824219 41.33398438 C282.57324219 39.45898438 282.57324219 39.45898438 284.44824219 38.33398438 C289.48605855 37.35193792 293.80785822 37.39556044 298.88574219 38.04101562 C299.56950928 38.12647141 300.25327637 38.21192719 300.95776367 38.29997253 C302.39363157 38.48145347 303.82893985 38.66741369 305.26367188 38.85766602 C307.44110257 39.14554046 309.62007923 39.41761286 311.79980469 39.6875 C329.09684444 41.89812427 329.09684444 41.89812427 332.44824219 45.45898438 C334.83347501 52.31652875 331.63674311 59.1547961 328.88574219 65.45898438 C328.52859131 66.28793213 328.17144043 67.11687988 327.8034668 67.97094727 C319.29260235 87.32434312 306.76433087 102.96896706 292.01074219 117.95898438 C291.49020264 118.49265625 290.96966309 119.02632813 290.43334961 119.57617188 C289.14368949 120.8685954 287.79999521 122.10665168 286.44824219 123.33398438 C285.78824219 123.33398438 285.12824219 123.33398438 284.44824219 123.33398438 C290.55750027 137.06184664 299.72334867 146.87889934 310.31152344 157.26757812 C311.12423706 158.06615234 311.12423706 158.06615234 311.95336914 158.88085938 C313.22779648 160.11969516 314.52342288 161.3366611 315.82324219 162.54882812 C317.44824219 164.33398438 317.44824219 164.33398438 318.13574219 167.45898438 C316.97045398 174.02697245 313.26051822 179.00080136 308.15527344 183.23632812 C304.3972406 185.81092684 300.71077997 187.7187069 296.44824219 189.33398438 C305.89261813 202.35577545 315.8761587 214.3156401 327.92871094 225.00585938 C330.99283631 227.83720624 331.35549575 228.51472418 331.82324219 232.64648438 C331.34316539 237.36723954 330.0168501 238.31104993 326.44824219 241.33398438 C315.59202129 246.93496459 303.44775025 247.60215981 291.44824219 246.33398438 C290.78824219 246.00398437 290.12824219 245.67398438 289.44824219 245.33398438 C289.66480469 246.36652344 289.88136719 247.3990625 290.10449219 248.46289062 C293.67310184 266.68692923 294.94964931 287.1537531 288.50683594 304.93164062 C288.17075904 307.61024286 288.17075904 307.61024286 290.72949219 309.94726562 C291.78958686 310.8620775 292.86344425 311.76110596 293.94824219 312.64648438 C295.06700413 313.61191098 296.18289883 314.58067023 297.29589844 315.55273438 C297.84004395 316.02453125 298.38418945 316.49632812 298.94482422 316.98242188 C301.53368009 319.30978565 303.76398321 321.89519228 305.97949219 324.57226562 C307.41096532 326.34092356 307.41096532 326.34092356 308.97949219 327.87695312 C311.62471348 330.6176963 312.80341634 332.71329735 313.01074219 336.45898438 C312.35981515 340.94314841 311.83480068 341.5272047 308.44824219 344.33398438 C305.97210051 345.88339335 303.41674358 347.24251814 300.82324219 348.58398438 C300.14261719 348.9475 299.46199219 349.31101562 298.76074219 349.68554688 C293.72273702 352.33398438 293.72273702 352.33398438 291.44824219 352.33398438 C291.44824219 352.99398438 291.44824219 353.65398437 291.44824219 354.33398438 C292.17100342 354.60654053 292.89376465 354.87909668 293.63842773 355.15991211 C296.3789575 356.30503398 298.83962259 357.62714947 301.40527344 359.11914062 C311.85896885 365.01641854 320.0858531 369.4106774 332.19042969 369.29882812 C337.88442907 369.36027416 341.22845908 371.30263006 345.33496094 375.06054688 C355.38683517 385.6392489 356.68698605 398.41720165 356.61621094 412.45898438 C356.44824219 416.33398438 356.44824219 416.33398438 355.93652344 419.95898438 C354.55713611 430.19955586 357.12919758 436.43087371 361.37402344 445.62304688 C364.42654234 452.30665778 366.01411016 459.15577616 367.44824219 466.33398438 C367.7846875 467.87892578 367.7846875 467.87892578 368.12792969 469.45507812 C369.66489283 477.88732114 369.74932613 486.40807949 369.88574219 494.95898438 C369.92022461 496.20583008 369.95470703 497.45267578 369.99023438 498.73730469 C369.99845215 500.50605957 369.99845215 500.50605957 370.00683594 502.31054688 C370.02029053 503.37354004 370.03374512 504.4365332 370.04760742 505.53173828 C369.44824219 508.33398438 369.44824219 508.33398438 367.10083008 510.67529297 C363.82034266 512.72661663 362.2498111 513.04677855 358.44824219 512.33398438 C355.79980469 510.56445312 355.79980469 510.56445312 353.44824219 507.33398438 C352.74122731 503.25627219 352.80205787 499.21404284 352.82324219 495.08398438 C352.66381694 484.45784897 351.58918869 474.72455625 349.44824219 464.33398438 C349.08077473 462.00385507 348.76043605 459.67243651 348.44824219 457.33398438 C347.78824219 457.33398438 347.12824219 457.33398438 346.44824219 457.33398438 C346.37476563 458.09582031 346.30128906 458.85765625 346.22558594 459.64257812 C345.13038019 464.84342954 343.08327952 469.51507775 341.01074219 474.39648438 C340.56770752 475.44545898 340.12467285 476.49443359 339.66821289 477.57519531 C336.59254931 484.79098744 333.43389217 491.96705642 330.13574219 499.08398438 C329.74008057 499.95804932 329.34441895 500.83211426 328.93676758 501.73266602 C326.7726922 506.30631158 324.96676018 509.68970696 320.44824219 512.33398438 C316.49299998 512.33398438 314.26913825 511.90229703 311.01074219 509.64648438 C308.88490629 506.50024724 309.01107257 505.12707368 309.44824219 501.33398438 C310.81535362 498.00021932 312.54819363 494.87601053 314.26074219 491.70898438 C329.89889619 461.52977664 345.74501466 423.54480886 336.85058594 389.00585938 C335.09665843 386.91482603 333.98579155 386.83037945 331.3605957 386.22949219 C330.63074966 386.05895325 329.90090363 385.88841431 329.14894104 385.71270752 C328.58771042 385.58772888 328.0264798 385.46275024 327.44824219 385.33398438 C323.78052609 398.13210656 320.5043976 411.0026769 317.38138962 423.94371796 C316.57707686 427.27453861 315.7682329 430.6042305 314.9581604 433.93365479 C312.65921418 443.38451799 310.36591105 452.83673578 308.08105469 462.29101562 C306.67445294 468.10987201 305.26082182 473.92698295 303.84273148 479.74304962 C303.30660284 481.94797181 302.77316326 484.1535497 302.24250412 486.35979462 C301.50307925 489.43324428 300.75474904 492.50439865 300.00439453 495.57519531 C299.78926712 496.47912018 299.57413971 497.38304504 299.35249329 498.31436157 C298.20163817 502.98147765 296.93877935 507.16522779 294.44824219 511.33398438 C291.66836059 512.72392517 289.52960959 512.51886642 286.44824219 512.33398438 C283.85499683 511.46956926 282.791779 510.86352753 281.30305481 508.56874084 C277.91218912 499.70392202 285.01041427 483.50025823 287.28027344 474.43164062 C287.75911215 472.50380444 288.23751243 470.57585931 288.71549988 468.64781189 C289.97051668 463.58989491 291.2308314 458.53331387 292.49249268 453.47705078 C294.25748723 446.39968485 296.01537539 439.32055015 297.77384949 432.24156189 C298.7068861 428.48550841 299.64195292 424.72997062 300.57881165 420.97486877 C301.01702955 419.21580249 301.45503653 417.45668365 301.89282227 415.69750977 C302.10335645 414.85167863 302.31389063 414.00584749 302.53080463 413.13438511 C304.36391554 405.7380587 306.12410351 398.32484626 307.8488512 390.90252018 C308.04416778 390.07052821 308.23948435 389.23853624 308.4407196 388.3813324 C308.61166484 387.6463021 308.78261007 386.9112718 308.95873547 386.15396786 C309.44824219 384.33398438 309.44824219 384.33398438 310.44824219 382.33398438 C309.81144531 382.10195313 309.17464844 381.86992187 308.51855469 381.63085938 C304.32061547 379.85768403 300.34477762 377.72253588 296.32324219 375.58398438 C295.48172607 375.13877441 294.64020996 374.69356445 293.77319336 374.23486328 C287.63819156 370.98307053 281.52512092 367.69333756 275.44824219 364.33398438 C274.74699219 364.97464844 274.04574219 365.6153125 273.32324219 366.27539062 C272.37449219 367.14035156 271.42574219 368.0053125 270.44824219 368.89648438 C269.94566895 369.35539062 269.4430957 369.81429688 268.92529297 370.28710938 C266.10134511 372.85809921 263.24122293 375.37083059 260.32324219 377.83398438 C229.11687417 405.25010527 211.93609637 448.9123935 209.01855469 489.61132812 C208.84031246 492.59267319 208.71759958 495.57159793 208.62402344 498.55664062 C208.17286828 508.25146369 208.17286828 508.25146369 206.16699219 511.24804688 C203.97075876 512.63566708 202.53563538 512.73485831 199.94824219 512.70898438 C199.17480469 512.71671875 198.40136719 512.72445312 197.60449219 512.73242188 C195.44824219 512.33398438 195.44824219 512.33398438 193.72949219 511.24804688 C189.89124896 505.51408595 191.58754136 497.25620183 192.13574219 490.77148438 C192.22823242 489.67030273 192.32072266 488.56912109 192.41601562 487.43457031 C196.97643669 437.32748332 217.44335186 390.6344598 256.57324219 357.95898438 C267.38896351 349.30338617 278.50738329 341.36157249 290.44824219 334.33398438 C276.08475094 316.94660023 257.15096553 301.67769137 236.44824219 292.33398438 C235.45824219 292.33398438 234.46824219 292.33398438 233.44824219 292.33398438 C231.6069297 294.45140821 231.6069297 294.45140821 229.82324219 297.20898438 C220.66340118 310.18542581 208.40852292 323.0073236 193.44824219 329.33398438 C192.78824219 329.33398438 192.12824219 329.33398438 191.44824219 329.33398438 C196.62442369 340.11022366 201.79274553 350.50046302 208.83105469 360.19335938 C210.84544394 364.1053617 211.30173696 367.01963916 210.44824219 371.33398438 C208.76074219 374.39648437 208.76074219 374.39648437 206.44824219 377.33398438 C181.66481332 410.63028077 176.6270192 456.7024241 176.01855469 496.8828125 C175.98761719 498.03072266 175.95667969 499.17863281 175.92480469 500.36132812 C175.90498535 501.38991943 175.88516602 502.41851074 175.86474609 503.47827148 C175.38749203 506.7505111 174.38450782 508.67444906 172.44824219 511.33398438 C170.58105469 512.18164062 170.58105469 512.18164062 168.57324219 512.39648438 C167.91582031 512.49058594 167.25839844 512.5846875 166.58105469 512.68164062 C163.0013577 512.0981369 161.78391511 511.15525253 159.44824219 508.33398438 C158.70948401 504.33163422 158.83955399 500.39110662 158.94824219 496.33398438 C158.96669189 495.13789551 158.9851416 493.94180664 159.00415039 492.70947266 C159.52112514 470.87690261 162.71603728 449.62188538 167.44824219 428.33398438 C166.73321533 428.40399658 166.01818848 428.47400879 165.28149414 428.54614258 C152.67234854 429.74363554 140.93158538 429.45880875 128.44824219 427.33398438 C128.58399658 427.96449707 128.71975098 428.59500977 128.85961914 429.24462891 C133.63754852 451.78966174 136.56059909 474.3950665 136.94824219 497.45898438 C136.97893799 498.5019165 137.00963379 499.54484863 137.04125977 500.61938477 C137.0430326 507.66286252 137.0430326 507.66286252 134.10449219 510.97851562 C130.81561104 512.65681233 129.08987125 513.01678982 125.44824219 512.33398438 C121.91934893 509.60610218 120.59269908 508.08849848 119.74462891 503.65893555 C119.68180587 502.23246081 119.64436467 500.80471599 119.62792969 499.37695312 C119.59895096 498.60551971 119.56997223 497.8340863 119.54011536 497.03927612 C119.47974306 495.38932039 119.4295869 493.73896453 119.38876343 492.08840942 C119.27839487 487.76450127 119.08348732 483.44424823 118.89746094 479.12304688 C118.86254044 478.27027664 118.82761993 477.41750641 118.79164124 476.53889465 C117.43431112 444.73377512 110.880407 410.35358188 95.22558594 382.29101562 C94.85675293 381.62690674 94.48791992 380.96279785 94.10791016 380.27856445 C93.40196379 379.02737112 92.67948975 377.78528633 91.93701172 376.55541992 C89.45424426 372.21580828 88.41616145 368.2405787 89.44824219 363.33398438 C90.80454966 360.28093733 92.57908236 357.59570851 94.44824219 354.83398438 C99.76440652 346.60200276 104.24363594 338.17690984 108.44824219 329.33398438 C107.12179688 328.93179688 107.12179688 328.93179688 105.76855469 328.52148438 C91.3889068 323.3786456 79.40540481 311.28905448 70.44824219 299.33398438 C69.89910156 298.6146875 69.34996094 297.89539063 68.78417969 297.15429688 C65.44824219 292.66289499 65.44824219 292.66289499 65.44824219 290.33398438 C42.69111072 301.327078 24.12217545 315.27583517 6.44824219 333.33398438 C9.75995607 336.13082528 13.15324787 338.42691811 16.86523438 340.63061523 C25.90757716 346.01603181 33.68083814 352.26818151 41.44824219 359.33398438 C42.60403282 360.36835206 43.76028061 361.40220916 44.91699219 362.43554688 C55.27697825 371.76406494 55.27697825 371.76406494 55.82324219 376.77148438 C55.44824219 380.33398438 55.44824219 380.33398438 53.94824219 382.77148438 C51.14435698 384.52391263 48.91194846 385.14466969 45.58886719 384.97851562 C41.13811103 383.63841569 38.4639533 379.6847745 35.44824219 376.33398438 C34.11603809 375.0810477 32.76224108 373.85058938 31.38574219 372.64648438 C30.79664063 372.12699219 30.20753906 371.6075 29.60058594 371.07226562 C26.64454512 368.68490054 23.55423036 366.52271794 20.44824219 364.33398438 C19.39507812 364.96304687 18.34191406 365.59210938 17.25683594 366.24023438 C7.78444892 371.8704348 -1.77983656 377.24177505 -11.55175781 382.33398438 C-10.94268241 388.07023603 -9.88966843 393.47372355 -8.42211914 399.04711914 C-8.20727875 399.8794104 -7.99243835 400.71170166 -7.77108765 401.56921387 C-7.06340872 404.3058633 -6.34864905 407.04060907 -5.63378906 409.77539062 C-5.13349327 411.70414694 -4.63363856 413.63301772 -4.13420105 415.56199646 C-2.81754204 420.64238717 -1.49485355 425.72118915 -0.17089844 430.79968262 C1.15438861 435.88763768 2.47384291 440.97710409 3.79394531 446.06640625 C4.31042714 448.05586994 4.82695711 450.04532113 5.34353638 452.03475952 C6.351711 455.91746703 7.35857468 459.80051139 8.36471558 463.68374634 C10.388778 471.48625311 12.41898126 479.28482977 14.56005859 487.05615234 C14.85342606 488.13243393 15.14679352 489.20871552 15.4490509 490.31761169 C15.95587195 492.16675882 16.47307549 494.01311763 17.00444031 495.85536194 C18.31934788 500.67459272 18.70075765 504.3640189 17.44824219 509.33398438 C15.32324219 511.33398438 15.32324219 511.33398438 12.44824219 512.33398438 C6.45274267 512.12724301 6.45274267 512.12724301 3.8246069 510.05179214 C2.20977163 508.03635499 1.69186457 506.47168279 1.05140686 503.97406006 C0.81746719 503.08288483 0.58352753 502.19170959 0.34249878 501.27352905 C0.09774811 500.29800079 -0.14700256 499.32247253 -0.39916992 498.31738281 C-0.79983925 496.77278885 -0.79983925 496.77278885 -1.20860291 495.19699097 C-2.09196298 491.78157109 -2.96051047 488.36256231 -3.82910156 484.94335938 C-4.44207226 482.56195628 -5.05598269 480.1807949 -5.67079163 477.79986572 C-7.29113247 471.51477581 -8.89905714 465.22657398 -10.5043335 458.93762207 C-12.12699575 452.58875617 -13.76052007 446.24268875 -15.39355469 439.89648438 C-17.23481044 432.73950808 -19.07503628 425.58228519 -20.90647888 418.42279053 C-23.73255641 407.37780627 -26.57624157 396.33979519 -29.55175781 385.33398438 C-34.13976475 385.8335848 -34.13976475 385.8335848 -37.80175781 388.45898438 C-41.27471019 394.16454899 -41.91522408 400.01807314 -41.86425781 406.58398438 C-41.85861816 407.36338379 -41.85297852 408.1427832 -41.84716797 408.94580078 C-41.25096162 438.47867561 -29.76004438 468.24179808 -15.59960938 493.79101562 C-12.84885636 498.93343866 -11.89130156 502.48513619 -12.55175781 508.33398438 C-15.0940849 511.32495741 -16.70922752 512.17600994 -20.55175781 512.89648438 C-24.45695009 512.16426082 -26.20478992 510.3832386 -28.55175781 507.33398438 C-30.52045165 503.97503121 -32.16483532 500.48938179 -33.80175781 496.95898438 C-34.27411865 495.95834961 -34.74647949 494.95771484 -35.2331543 493.92675781 C-39.09096118 485.624804 -42.50847163 477.1752414 -45.734375 468.60986328 C-46.07758789 467.69897949 -46.42080078 466.7880957 -46.77441406 465.84960938 C-47.070979 465.04813477 -47.36754395 464.24666016 -47.6730957 463.42089844 C-48.57560361 461.09415491 -48.57560361 461.09415491 -50.55175781 458.33398438 C-51.20376051 461.14517741 -51.84845903 463.95773469 -52.48925781 466.77148438 C-52.67166016 467.55458984 -52.8540625 468.33769531 -53.04199219 469.14453125 C-54.70231016 476.48011792 -55.55832013 483.58179597 -55.69238281 491.10351562 C-55.72138672 492.58948242 -55.72138672 492.58948242 -55.75097656 494.10546875 C-55.78515347 496.15213959 -55.80308441 498.1991392 -55.80566406 500.24609375 C-55.99118279 507.70101721 -55.99118279 507.70101721 -58.91113281 510.99804688 C-62.19166017 512.65772196 -63.92508974 513.01398464 -67.55175781 512.33398438 C-70.44538243 510.28717049 -72.28164991 508.67380767 -73.00097656 505.10571289 C-73.15804198 502.33133266 -73.13955425 499.61152335 -73.05175781 496.83398438 C-73.03258301 495.8158667 -73.0134082 494.79774902 -72.99365234 493.7487793 C-72.42844964 474.02014995 -69.17936514 454.04256614 -60.11425781 436.33398438 C-56.95608851 429.91100628 -57.52064382 425.24153566 -58.55175781 418.33398438 C-59.36609981 403.45734648 -57.88259247 386.95711048 -48.19628906 374.99023438 C-44.69043508 371.45939806 -40.47442852 369.18747431 -35.55175781 368.33398438 C-33.42184372 368.43736976 -31.29293409 368.56230033 -29.16503906 368.70117188 C-20.66338075 368.76067797 -14.93450962 365.69734019 -7.73925781 361.45898438 C-6.56037073 360.79883359 -5.38003361 360.14126541 -4.19824219 359.48632812 C1.44983486 356.76814937 1.44983486 356.76814937 5.44824219 352.33398438 C4.78308594 352.08648437 4.11792969 351.83898437 3.43261719 351.58398438 C-0.26369313 350.03579157 -3.76567114 348.21444665 -7.30175781 346.33398438 C-8.32849609 345.8003125 -8.32849609 345.8003125 -9.37597656 345.25585938 C-14.43256981 342.57236039 -14.43256981 342.57236039 -15.55175781 340.33398438 C-16.25700367 333.35423155 -16.25700367 333.35423155 -13.39160156 329.20898438 C-12.4435744 328.23143502 -11.47503985 327.27344807 -10.48925781 326.33398438 C-9.4715118 325.30093636 -8.45458435 324.26708128 -7.43847656 323.23242188 C-6.94138184 322.73838867 -6.44428711 322.24435547 -5.93212891 321.73535156 C-4.11842005 319.89405534 -2.46027374 317.94009494 -0.80175781 315.95898438 C2.32133307 312.34436587 5.74999509 309.35296159 9.44824219 306.33398438 C9.14080078 304.95726562 9.14080078 304.95726562 8.82714844 303.55273438 C8.55773437 302.32554687 8.28832031 301.09835937 8.01074219 299.83398438 C7.74390625 298.62742187 7.47707031 297.42085938 7.20214844 296.17773438 C5.82101461 289.13609868 5.25412156 282.36588673 5.26074219 275.20898438 C5.26082275 274.3858374 5.26090332 273.56269043 5.26098633 272.71459961 C5.34010903 264.12687104 6.22291673 255.65389487 8.44824219 247.33398438 C7.45824219 247.66398438 6.46824219 247.99398437 5.44824219 248.33398438 C-6.622038 248.97773265 -20.08028778 249.3149644 -30.55175781 242.33398438 C-32.84728222 239.59416493 -33.56108944 238.15750054 -33.52050781 234.57617188 C-32.16799058 230.04960211 -29.53697932 227.90168078 -26.11425781 224.77148438 C-12.56779305 211.77948277 -3.56087876 196.64660471 5.44824219 180.33398438 C4.40482666 180.22328613 3.36141113 180.11258789 2.28637695 179.99853516 C-1.62239029 179.58246729 -5.53040235 179.15963562 -9.43823242 178.73486328 C-11.12260722 178.55270771 -12.80717573 178.37233343 -14.49194336 178.19384766 C-16.92779045 177.93546743 -19.3628453 177.67047146 -21.79785156 177.40429688 C-22.90935829 177.28853806 -22.90935829 177.28853806 -24.0433197 177.17044067 C-37.97517167 175.6239185 -37.97517167 175.6239185 -41.61425781 172.64648438 C-43.88489242 167.04558567 -42.62179479 163.01737891 -40.48925781 157.58398438 C-35.34624072 146.06591824 -28.20777643 137.30591609 -19.55175781 128.33398438 C-18.9059375 127.625 -18.26011719 126.91601562 -17.59472656 126.18554688 C-5.19020941 112.94325188 11.36236947 104.26256619 27.44824219 96.33398438 C27.05894531 95.74875 26.66964844 95.16351563 26.26855469 94.56054688 C20.52306514 85.74373573 15.37964988 76.62705086 10.44824219 67.33398438 C10.0637793 66.61275391 9.67931641 65.89152344 9.28320312 65.1484375 C1.32623258 49.98111051 -13.93286692 20.52141241 -9.55175781 3.33398438 C-6.75082535 -0.29124971 -4.34091393 -0.15772396 0 0 Z M10.44824219 23.33398438 C14.31996109 37.76802413 20.49469454 51.1664146 27.44824219 64.33398438 C27.75987305 64.93065918 28.07150391 65.52733398 28.39257812 66.14208984 C36.48246141 81.48718592 47.18836493 95.10707486 59.44824219 107.33398438 C60.36476562 108.27113281 61.28128906 109.20828125 62.22558594 110.17382812 C67.17025175 114.79585192 67.17025175 114.79585192 73.48730469 116.72851562 C76.5862493 116.52061175 79.42539331 116.03849658 82.44824219 115.33398438 C83.35832031 115.15351562 84.26839844 114.97304687 85.20605469 114.78710938 C87.29811182 114.35426997 89.37566425 113.85212886 91.44824219 113.33398438 C77.96556035 78.52532982 54.20032529 50.61154964 23.44824219 29.77148438 C22.532323 29.145 22.532323 29.145 21.59790039 28.50585938 C17.99965507 26.12187953 14.60138474 24.50522122 10.44824219 23.33398438 Z M95.44824219 27.33398438 C93.98814267 29.82337667 92.77007067 32.39691271 91.57324219 35.02148438 C91.06204834 36.13185059 91.06204834 36.13185059 90.54052734 37.26464844 C88.11646036 42.63360016 85.87508132 48.06217657 83.82324219 53.58398438 C83.41549561 54.63718872 83.41549561 54.63718872 82.99951172 55.71166992 C81.94167958 58.68840235 81.24708718 60.68574572 82.20068359 63.75878906 C83.47749277 66.39436306 84.91643411 68.73330739 86.57324219 71.14648438 C87.11207031 71.93667969 87.65089844 72.726875 88.20605469 73.54101562 C88.61597656 74.13269531 89.02589844 74.724375 89.44824219 75.33398438 C90.73903687 75.16008179 90.73903687 75.16008179 92.0559082 74.98266602 C95.32640233 74.54448331 98.59743509 74.1108107 101.86889648 73.67993164 C103.2701686 73.49449029 104.67122146 73.30738265 106.07202148 73.1184082 C142.20494478 68.24961689 180.31326166 68.26675518 215.28100586 79.76782227 C217.7199346 80.50248747 217.7199346 80.50248747 221.44824219 80.33398438 C220.15816752 72.84495669 218.13929889 65.77406879 215.69824219 58.58398438 C215.16589966 57.00617187 215.16589966 57.00617187 214.62280273 55.39648438 C209.54172521 37.12307713 209.54172521 37.12307713 198.44824219 23.33398438 C190.23501715 23.11164197 183.2413525 26.0929311 175.82324219 29.27148438 C156.09274352 37.59455273 142.63262214 37.48279122 122.84667969 29.47851562 C108.39812588 22.32975381 108.39812588 22.32975381 95.44824219 27.33398438 Z M98.44824219 89.33398438 C101.41824219 96.59398438 104.38824219 103.85398438 107.44824219 111.33398438 C109.47078125 111.140625 111.49332031 110.94726562 113.57714844 110.74804688 C116.38812718 110.48266147 119.19940095 110.22050002 122.01074219 109.95898438 C122.75241638 109.88984833 123.49409058 109.82071228 124.25823975 109.7494812 C134.85788966 108.7681585 145.44476472 107.99928537 156.07324219 107.39648438 C177.7238029 106.11086111 199.4083446 103.75991133 220.44824219 98.33398438 C189.36137259 77.60940464 133.13556811 83.33864409 98.44824219 89.33398438 Z M291.55102539 88.12744141 C247.16549916 114.37528999 194.37553936 120.33368671 143.88574219 123.27148438 C97.04765723 126.0846715 27.82504688 132.26523066 -10.55175781 162.33398438 C69.36941029 169.77388294 157.98211141 171.44420436 270.07324219 114.89648438 C271.87334102 113.38564102 273.66520602 111.86492706 275.44824219 110.33398438 C276.29257812 109.61339844 277.13691406 108.8928125 278.00683594 108.15039062 C285.6568135 101.45516845 293.44701716 94.27508122 298.44824219 85.33398438 C295.65095226 85.33398438 293.90189489 86.73699372 291.55102539 88.12744141 Z M-7.73925781 139.39648438 C-8.68223428 140.3703781 -9.6221771 141.34729632 -10.55175781 142.33398438 C-8.58384571 143.61184019 -8.58384571 143.61184019 -6.50244141 142.65649414 C-5.6602002 142.28322998 -4.81795898 141.90996582 -3.95019531 141.52539062 C-2.99653076 141.11168213 -2.04286621 140.69797363 -1.06030273 140.27172852 C0.490802 139.59098267 0.490802 139.59098267 2.07324219 138.89648438 C10.69728931 135.20363489 19.35101359 131.83699119 28.26074219 128.89648438 C29.21867676 128.57945557 30.17661133 128.26242676 31.16357422 127.93579102 C37.53959596 125.86577664 43.96687629 124.04374433 50.44824219 122.33398438 C48.75937835 118.72511396 46.73969395 116.38754534 43.88574219 113.58398438 C43.08007812 112.78476563 42.27441406 111.98554687 41.44433594 111.16210938 C33.1211456 103.53930492 -1.78760614 133.49235088 -7.73925781 139.39648438 Z M264.74023438 137.3815918 C239.13682719 154.02503092 209.92927458 163.17330708 180.44824219 170.33398438 C180.44824219 170.99398437 180.44824219 171.65398437 180.44824219 172.33398438 C198.38681602 182.33086993 217.5039824 187.57490635 237.97558594 189.08789062 C240.51557873 189.34068612 242.95485389 189.79427063 245.44824219 190.33398438 C246.37897484 193.50119443 246.58529858 196.36314737 246.609375 199.65893555 C246.61898254 200.72492477 246.62859009 201.790914 246.63848877 202.88920593 C246.64273865 204.04016251 246.64698853 205.19111908 246.65136719 206.37695312 C246.65706726 207.5739534 246.66276733 208.77095367 246.66864014 210.00422668 C246.67809264 212.54537066 246.68462511 215.08652691 246.68847656 217.62768555 C246.69809213 221.46165412 246.72907595 225.29506556 246.76074219 229.12890625 C246.81756838 242.22723598 246.45198792 254.55324997 243.44824219 267.33398438 C243.23586914 268.33067139 243.02349609 269.3273584 242.8046875 270.35424805 C242.37705025 272.35289559 241.91838775 274.34490701 241.44824219 276.33398438 C242.59679687 276.95144531 243.74535156 277.56890625 244.92871094 278.20507812 C253.66076306 282.95002096 262.01092568 287.85574076 270.04199219 293.71679688 C272.24170015 295.51991958 272.24170015 295.51991958 274.44824219 295.33398438 C279.38854409 275.70510626 276.42249519 255.29459639 269.43652344 236.60351562 C268.42833326 233.26811968 268.11067272 230.79284837 268.44824219 227.33398438 C270.44824219 224.33398438 270.44824219 224.33398438 273.82324219 223.27148438 C279.18310692 222.73058059 283.24177813 225.37267894 287.81152344 227.88867188 C292.32904552 230.36494324 296.11355972 230.45744457 301.13574219 230.39648438 C301.83763672 230.39197266 302.53953125 230.38746094 303.26269531 230.3828125 C304.99124757 230.37105364 306.71975584 230.35311891 308.44824219 230.33398438 C305.55202739 226.93223231 302.64855412 223.54115881 299.65917969 220.22070312 C293.9170675 213.7819081 288.73694156 207.14054672 283.94824219 199.95898438 C283.45630371 199.22252686 282.96436523 198.48606934 282.45751953 197.72729492 C274.44824219 185.46749216 274.44824219 185.46749216 274.44824219 180.02148438 C275.66044085 176.76370046 276.28610528 175.79343218 279.44824219 174.33398438 C281.37161365 174.33398438 283.2958931 174.34029426 285.21777344 174.41601562 C289.15148508 174.27134322 292.9403719 173.102475 296.44824219 171.33398438 C297.10824219 170.34398437 297.76824219 169.35398438 298.44824219 168.33398438 C297.60261719 167.67398438 296.75699219 167.01398438 295.88574219 166.33398438 C285.61076617 157.71162688 277.36919903 145.72007467 270.44824219 134.33398438 C268.27671412 134.33398438 266.50839985 136.22266347 264.74023438 137.3815918 Z M147.56933594 176.10351562 C121.29434999 179.70153172 94.92201793 181.0197832 68.44824219 182.33398438 C68.35482848 191.31483286 68.28412041 200.29550957 68.2409935 209.27674103 C68.22027613 213.44883096 68.19225575 217.62058422 68.14648438 221.79248047 C68.10245142 225.83202841 68.07898657 229.87125625 68.06873322 233.911026 C68.06144327 235.43853279 68.04721419 236.96602564 68.02532196 238.49339294 C67.83771601 252.14753077 69.63008895 265.4966893 76.19824219 277.70898438 C76.54258301 278.36979004 76.88692383 279.0305957 77.24169922 279.71142578 C80.34360787 285.482189 84.00911632 290.50849015 88.44824219 295.33398438 C89.18558594 296.16285156 89.92292969 296.99171875 90.68261719 297.84570312 C106.16228846 314.3624112 126.73728757 322.4324271 149.10839844 323.29492188 C171.88694282 323.76602928 192.65583743 313.55739554 208.81542969 298.06445312 C224.39509231 281.81092966 231.89262614 260.79660408 231.64355469 238.41601562 C231.64072479 237.43275803 231.6378949 236.44950043 231.63497925 235.43644714 C231.6239111 232.33966151 231.59883272 229.24318048 231.57324219 226.14648438 C231.56319507 224.02865005 231.55407228 221.91081113 231.54589844 219.79296875 C231.52401577 214.63985914 231.48958057 209.48697314 231.44824219 204.33398438 C230.80089111 204.21917725 230.15354004 204.10437012 229.48657227 203.98608398 C204.42201073 199.46204224 180.96603041 193.5476127 161.03417969 177.02148438 C156.7357224 174.2164488 152.4747656 175.39315915 147.56933594 176.10351562 Z M23.44824219 181.33398438 C23.12662109 181.93758789 22.805 182.54119141 22.47363281 183.16308594 C14.24290189 198.56194985 5.69851752 212.76689648 -5.23144531 226.40039062 C-7.57875426 229.28661679 -7.57875426 229.28661679 -9.55175781 232.33398438 C-1.0027755 232.8627874 7.20920567 232.65496543 14.12011719 226.95507812 C14.83941406 226.27638672 14.83941406 226.27638672 15.57324219 225.58398438 C18.48438417 223.30569934 19.15450645 222.96034502 22.63574219 222.83398438 C26.44824219 223.33398438 26.44824219 223.33398438 28.44824219 224.33398438 C30.71638151 228.87026303 29.89621416 232.91626464 28.42871094 237.56054688 C27.7695751 239.42046493 27.11037102 241.28035941 26.44946289 243.13964844 C20.58401886 260.16419851 20.12116621 277.71830529 23.44824219 295.33398438 C24.04507813 294.9446875 24.64191406 294.55539062 25.25683594 294.15429688 C31.18363193 290.33226201 37.18618252 286.66562327 43.26074219 283.08398438 C43.97738037 282.66004395 44.69401855 282.23610352 45.43237305 281.79931641 C49.37069148 279.48848183 53.33406791 277.32325545 57.44824219 275.33398438 C57.32707031 274.728125 57.20589844 274.12226563 57.08105469 273.49804688 C56.72593621 271.7224545 56.37327217 269.94637027 56.02246094 268.16992188 C55.66840448 266.42131653 55.29919538 264.67560495 54.90527344 262.93554688 C52.30733698 251.17646605 52.29637417 239.05493299 52.13183594 227.06054688 C52.11105484 225.77078949 52.09027374 224.4810321 52.06886292 223.15219116 C52.0145021 219.77568044 51.96472573 216.39911831 51.91601562 213.02252197 C51.86515928 209.55598551 51.80981321 206.08952075 51.75488281 202.62304688 C51.6483585 195.86008852 51.54669349 189.09706496 51.44824219 182.33398438 C47.85776959 181.57526577 44.60331886 181.21579959 40.92871094 181.23632812 C39.39633789 181.24116211 39.39633789 181.24116211 37.83300781 181.24609375 C36.25036133 181.25866211 36.25036133 181.25866211 34.63574219 181.27148438 C33.56130859 181.27599609 32.486875 181.28050781 31.37988281 181.28515625 C28.73594535 181.29690708 26.09212267 181.3133365 23.44824219 181.33398438 Z M123.44824219 335.33398438 C123.2175 335.84147217 122.98675781 336.34895996 122.74902344 336.87182617 C122.05382883 338.3922209 121.35402676 339.91051317 120.65087891 341.42724609 C119.84238703 343.1712645 119.04204769 344.91908322 118.24951172 346.67041016 C116.38881096 350.67892497 114.62077037 354.36639504 111.75292969 357.75195312 C109.06660288 361.02132514 107.48846622 363.2139704 106.44824219 367.33398438 C107.68849831 373.86674906 111.15736464 379.69761262 114.16601562 385.55273438 C115.84223733 389.18859075 116.84206309 392.88325643 117.89160156 396.73681641 C120.00552206 404.83481598 120.00552206 404.83481598 125.78417969 410.43554688 C129.40880883 411.49178052 132.69115661 412.03635073 136.44824219 412.33398438 C137.45628906 412.51058594 138.46433594 412.6871875 139.50292969 412.86914062 C150.66171383 414.63027499 164.88463584 413.8885217 174.44824219 407.33398438 C176.11901412 404.48216943 177.13200354 401.45353437 178.19824219 398.33398438 C181.27282621 389.93827107 184.94862552 382.18888535 189.38671875 374.42773438 C189.80018555 373.68523437 190.21365234 372.94273437 190.63964844 372.17773438 C191.19954468 371.20610352 191.19954468 371.20610352 191.77075195 370.21484375 C192.63972361 367.80239054 192.33355394 366.71831957 191.44824219 364.33398438 C190.78948556 362.99738407 190.08249528 361.68388674 189.33886719 360.39257812 C188.91589355 359.64862793 188.49291992 358.90467773 188.05712891 358.13818359 C187.60869629 357.35717285 187.16026367 356.57616211 186.69824219 355.77148438 C182.91436929 349.08668719 179.41649191 342.42653898 176.44824219 335.33398438 C175.76761719 335.46675781 175.08699219 335.59953125 174.38574219 335.73632812 C156.9620014 338.91060005 140.81549916 338.3857388 123.44824219 335.33398438 Z " fill="#000000" transform="translate(108.5517578125,-0.333984375)"/>
<path d="M0 0 C7.39304496 2.34167212 12.13247273 15.78891485 15.44824219 22.15014648 C23.63352645 38.35462576 28.74469518 55.81182421 32.00097656 73.63378906 C32.21367187 74.74753906 32.42636719 75.86128906 32.64550781 77.00878906 C33.92933765 84.69329572 34.39488597 92.42312536 34.81347656 100.19628906 C34.87881592 101.24445801 34.94415527 102.29262695 35.01147461 103.37255859 C35.42246612 112.6179961 35.42246612 112.6179961 32.00097656 116.63378906 C30.4217525 118.21301312 28.80653782 117.84144807 26.62597656 117.88378906 C25.83449219 117.90957031 25.04300781 117.93535156 24.22753906 117.96191406 C22.00097656 117.63378906 22.00097656 117.63378906 20.41235352 116.53881836 C18.32970833 113.72773371 18.42883232 111.29304628 18.19238281 107.82519531 C18.08668089 106.43423777 17.98088282 105.04328753 17.875 103.65234375 C17.82468628 102.92478882 17.77437256 102.19723389 17.72253418 101.44763184 C15.58652937 71.21406565 8.99555413 41.77374762 -7.56152344 15.88378906 C-9.98790115 12.00428821 -10.92931033 9.28522352 -9.99902344 4.63378906 C-7.56077988 0.67164329 -4.64765137 -0.25428529 0 0 Z " fill="#000000" transform="translate(178.9990234375,394.3662109375)"/>
<path d="M0 0 C2.3125 1 2.3125 1 4 3 C4.96988093 5.73222554 5.32575603 8.1131276 5 11 C2.60540961 14.48304057 1.14822958 15.7607855 -3 16.625 C-7.10703441 15.76936783 -8.55401113 14.38121991 -11 11 C-11.625 7.4375 -11.625 7.4375 -11 4 C-7.67034034 0.18068451 -4.98827134 -0.74293403 0 0 Z " fill="#000000" transform="translate(491,26)"/>
<path d="M0 0 C2.875 1.5625 2.875 1.5625 5 4 C5.625 7.4375 5.625 7.4375 5 11 C2.52070473 14.4272611 1.14517131 15.81303325 -3.0625 16.5 C-6.42877241 15.92701746 -7.79003464 15.6192182 -10 13 C-10.96988093 10.26777446 -11.32575603 7.8868724 -11 5 C-7.91867946 0.51807921 -5.40810027 -1.0140188 0 0 Z " fill="#000000" transform="translate(27,26)"/>
<path d="M0 0 C3.4375 0.625 3.4375 0.625 5.875 2.75 C7.69745501 6.10331721 7.99758001 7.86446276 7.4375 11.625 C6.375 13.9375 6.375 13.9375 4.4375 15.625 C0.46405839 16.72873378 -1.65249772 17.04043583 -5.4375 15.3125 C-8.14856766 13.15959333 -8.48045249 12.24035634 -8.9375 8.8125 C-8.5625 5.625 -8.5625 5.625 -6.5 2.75 C-3.5625 0.625 -3.5625 0.625 0 0 Z " fill="#000000" transform="translate(450.5625,294.375)"/>
<path d="M0 0 C2.375 1.0625 2.375 1.0625 4 3 C5.20899436 7.08035596 5.48799759 9.06467129 3.5 12.875 C0.23718151 15.64839572 -1.73561227 16.07481382 -6 16 C-8.9375 14.5625 -8.9375 14.5625 -11 12 C-11.65360928 9.19636021 -11.61014545 6.8089715 -11 4 C-8.14969659 -0.56048545 -5.12186168 -0.64023271 0 0 Z " fill="#000000" transform="translate(61,295)"/>
<path d="M0 0 C2.3125 1.625 2.3125 1.625 4 4 C4.55802097 7.90614682 4.58392818 10.05111671 2.5 13.4375 C-0.53037069 15.33148168 -2.55830934 15.64334247 -6.08984375 15.4453125 C-8 15 -8 15 -10.5625 12.9375 C-12.43625505 9.10852228 -12.12962701 7.06665724 -11 3 C-8.03619015 -1.04155889 -4.62108692 -1.46522268 0 0 Z " fill="#000000" transform="translate(44,189)"/>
<path d="M0 0 C1.9375 1.0625 1.9375 1.0625 3 3 C3.75471698 9.79245283 3.75471698 9.79245283 1.4375 13.5 C-1.9238388 15.56851618 -4.11959911 15.48505011 -8 15 C-10.375 13.9375 -10.375 13.9375 -12 12 C-13 8.625 -13 8.625 -13 5 C-9.23021184 -0.97966398 -6.77641513 -1.42661371 0 0 Z " fill="#000000" transform="translate(78,71)"/>
<path d="M0 0 C2.75806231 2.39032067 2.98155872 3.85246979 3.4375 7.5 C3 11 3 11 1.5 13.4375 C-1.53037069 15.33148168 -3.55830934 15.64334247 -7.08984375 15.4453125 C-9 15 -9 15 -11.5625 12.9375 C-13.43625505 9.10852228 -13.12962701 7.06665724 -12 3 C-8.78582662 -1.3829637 -4.97195232 -1.34657042 0 0 Z " fill="#000000" transform="translate(485,189)"/>
<path d="M0 0 C2.4375 2.125 2.4375 2.125 4 5 C3.94021398 8.46758942 3.60965977 10.88826749 1.9375 13.9375 C-1.26492585 15.69366901 -4.49690726 15.62026592 -8 15 C-10.5 13.4375 -10.5 13.4375 -12 11 C-12.46918683 7.24650538 -12.53136381 4.96151547 -10.6875 1.625 C-7.31647117 -1.62117591 -4.25088972 -1.21453992 0 0 Z " fill="#000000" transform="translate(446,119)"/>
</svg>
